<svg xmlns="http://www.w3.org/2000/svg" viewBox="0 0 18 19" shape-rendering="crispEdges" width="512" height="540">
<rect x="3" y="1" width="1" height="1" fill="#f0b429"></rect><rect x="4" y="1" width="1" height="1" fill="#f0b429"></rect><rect x="5" y="1" width="1" height="1" fill="#f0b429"></rect><rect x="6" y="1" width="1" height="1" fill="#f0b429"></rect><rect x="7" y="1" width="1" height="1" fill="#f0b429"></rect><rect x="8" y="1" width="1" height="1" fill="#f0b429"></rect><rect x="9" y="1" width="1" height="1" fill="#f0b429"></rect><rect x="10" y="1" width="1" height="1" fill="#f0b429"></rect><rect x="11" y="1" width="1" height="1" fill="#f0b429"></rect><rect x="12" y="1" width="1" height="1" fill="#f0b429"></rect><rect x="13" y="1" width="1" height="1" fill="#f0b429"></rect><rect x="14" y="1" width="1" height="1" fill="#f0b429"></rect><rect x="3" y="2" width="1" height="1" fill="#f0b429"></rect><rect x="4" y="2" width="1" height="1" fill="#ffd76b"></rect><rect x="5" y="2" width="1" height="1" fill="#ffd76b"></rect><rect x="6" y="2" width="1" height="1" fill="#ffd76b"></rect><rect x="7" y="2" width="1" height="1" fill="#ffd76b"></rect><rect x="8" y="2" width="1" height="1" fill="#ffd76b"></rect><rect x="9" y="2" width="1" height="1" fill="#ffd76b"></rect><rect x="10" y="2" width="1" height="1" fill="#ffd76b"></rect><rect x="11" y="2" width="1" height="1" fill="#ffd76b"></rect><rect x="12" y="2" width="1" height="1" fill="#ffd76b"></rect><rect x="13" y="2" width="1" height="1" fill="#ffd76b"></rect><rect x="14" y="2" width="1" height="1" fill="#f0b429"></rect><rect x="3" y="3" width="1" height="1" fill="#f0b429"></rect><rect x="4" y="3" width="1" height="1" fill="#f0b429"></rect><rect x="5" y="3" width="1" height="1" fill="#f0b429"></rect><rect x="6" y="3" width="1" height="1" fill="#f0b429"></rect><rect x="7" y="3" width="1" height="1" fill="#f0b429"></rect><rect x="8" y="3" width="1" height="1" fill="#f0b429"></rect><rect x="9" y="3" width="1" height="1" fill="#f0b429"></rect><rect x="10" y="3" width="1" height="1" fill="#f0b429"></rect><rect x="11" y="3" width="1" height="1" fill="#f0b429"></rect><rect x="12" y="3" width="1" height="1" fill="#f0b429"></rect><rect x="13" y="3" width="1" height="1" fill="#f0b429"></rect><rect x="14" y="3" width="1" height="1" fill="#f0b429"></rect><rect x="2" y="4" width="1" height="1" fill="#a76b1a"></rect><rect x="3" y="4" width="1" height="1" fill="#a76b1a"></rect><rect x="4" y="4" width="1" height="1" fill="#a76b1a"></rect><rect x="5" y="4" width="1" height="1" fill="#a76b1a"></rect><rect x="6" y="4" width="1" height="1" fill="#a76b1a"></rect><rect x="7" y="4" width="1" height="1" fill="#a76b1a"></rect><rect x="8" y="4" width="1" height="1" fill="#a76b1a"></rect><rect x="9" y="4" width="1" height="1" fill="#a76b1a"></rect><rect x="10" y="4" width="1" height="1" fill="#a76b1a"></rect><rect x="11" y="4" width="1" height="1" fill="#a76b1a"></rect><rect x="12" y="4" width="1" height="1" fill="#a76b1a"></rect><rect x="13" y="4" width="1" height="1" fill="#a76b1a"></rect><rect x="14" y="4" width="1" height="1" fill="#a76b1a"></rect><rect x="15" y="4" width="1" height="1" fill="#a76b1a"></rect><rect x="2" y="5" width="1" height="1" fill="#a76b1a"></rect><rect x="3" y="5" width="1" height="1" fill="#f0b429"></rect><rect x="4" y="5" width="1" height="1" fill="#f0b429"></rect><rect x="5" y="5" width="1" height="1" fill="#f0b429"></rect><rect x="6" y="5" width="1" height="1" fill="#f0b429"></rect><rect x="7" y="5" width="1" height="1" fill="#f0b429"></rect><rect x="8" y="5" width="1" height="1" fill="#f0b429"></rect><rect x="9" y="5" width="1" height="1" fill="#f0b429"></rect><rect x="10" y="5" width="1" height="1" fill="#f0b429"></rect><rect x="11" y="5" width="1" height="1" fill="#f0b429"></rect><rect x="12" y="5" width="1" height="1" fill="#f0b429"></rect><rect x="13" y="5" width="1" height="1" fill="#f0b429"></rect><rect x="14" y="5" width="1" height="1" fill="#f0b429"></rect><rect x="15" y="5" width="1" height="1" fill="#a76b1a"></rect><rect x="2" y="6" width="1" height="1" fill="#a76b1a"></rect><rect x="3" y="6" width="1" height="1" fill="#a76b1a"></rect><rect x="4" y="6" width="1" height="1" fill="#a76b1a"></rect><rect x="5" y="6" width="1" height="1" fill="#a76b1a"></rect><rect x="6" y="6" width="1" height="1" fill="#a76b1a"></rect><rect x="7" y="6" width="1" height="1" fill="#a76b1a"></rect><rect x="8" y="6" width="1" height="1" fill="#a76b1a"></rect><rect x="9" y="6" width="1" height="1" fill="#a76b1a"></rect><rect x="10" y="6" width="1" height="1" fill="#a76b1a"></rect><rect x="11" y="6" width="1" height="1" fill="#a76b1a"></rect><rect x="12" y="6" width="1" height="1" fill="#a76b1a"></rect><rect x="13" y="6" width="1" height="1" fill="#a76b1a"></rect><rect x="14" y="6" width="1" height="1" fill="#a76b1a"></rect><rect x="15" y="6" width="1" height="1" fill="#a76b1a"></rect><rect x="0" y="7" width="1" height="1" fill="#3b82f6"></rect><rect x="1" y="7" width="1" height="1" fill="#3b82f6"></rect><rect x="2" y="7" width="1" height="1" fill="#3b82f6"></rect><rect x="3" y="7" width="1" height="1" fill="#3b82f6"></rect><rect x="4" y="7" width="1" height="1" fill="#3b82f6"></rect><rect x="5" y="7" width="1" height="1" fill="#3b82f6"></rect><rect x="6" y="7" width="1" height="1" fill="#3b82f6"></rect><rect x="7" y="7" width="1" height="1" fill="#3b82f6"></rect><rect x="8" y="7" width="1" height="1" fill="#3b82f6"></rect><rect x="9" y="7" width="1" height="1" fill="#3b82f6"></rect><rect x="10" y="7" width="1" height="1" fill="#3b82f6"></rect><rect x="11" y="7" width="1" height="1" fill="#3b82f6"></rect><rect x="12" y="7" width="1" height="1" fill="#3b82f6"></rect><rect x="13" y="7" width="1" height="1" fill="#3b82f6"></rect><rect x="14" y="7" width="1" height="1" fill="#3b82f6"></rect><rect x="15" y="7" width="1" height="1" fill="#3b82f6"></rect><rect x="16" y="7" width="1" height="1" fill="#3b82f6"></rect><rect x="17" y="7" width="1" height="1" fill="#3b82f6"></rect><rect x="0" y="8" width="1" height="1" fill="#3b82f6"></rect><rect x="1" y="8" width="1" height="1" fill="#1e3a8a"></rect><rect x="2" y="8" width="1" height="1" fill="#1e3a8a"></rect><rect x="3" y="8" width="1" height="1" fill="#1e3a8a"></rect><rect x="4" y="8" width="1" height="1" fill="#1e3a8a"></rect><rect x="5" y="8" width="1" height="1" fill="#1e3a8a"></rect><rect x="6" y="8" width="1" height="1" fill="#1e3a8a"></rect><rect x="7" y="8" width="1" height="1" fill="#1e3a8a"></rect><rect x="8" y="8" width="1" height="1" fill="#1e3a8a"></rect><rect x="9" y="8" width="1" height="1" fill="#1e3a8a"></rect><rect x="10" y="8" width="1" height="1" fill="#1e3a8a"></rect><rect x="11" y="8" width="1" height="1" fill="#1e3a8a"></rect><rect x="12" y="8" width="1" height="1" fill="#1e3a8a"></rect><rect x="13" y="8" width="1" height="1" fill="#1e3a8a"></rect><rect x="14" y="8" width="1" height="1" fill="#1e3a8a"></rect><rect x="15" y="8" width="1" height="1" fill="#1e3a8a"></rect><rect x="16" y="8" width="1" height="1" fill="#1e3a8a"></rect><rect x="17" y="8" width="1" height="1" fill="#3b82f6"></rect><rect x="0" y="9" width="1" height="1" fill="#3b82f6"></rect><rect x="1" y="9" width="1" height="1" fill="#1e3a8a"></rect><rect x="16" y="9" width="1" height="1" fill="#1e3a8a"></rect><rect x="17" y="9" width="1" height="1" fill="#3b82f6"></rect><rect x="0" y="10" width="1" height="1" fill="#3b82f6"></rect><rect x="1" y="10" width="1" height="1" fill="#1e3a8a"></rect><rect x="3" y="10" width="1" height="1" fill="#f0b429"></rect><rect x="4" y="10" width="1" height="1" fill="#f0b429"></rect><rect x="16" y="10" width="1" height="1" fill="#1e3a8a"></rect><rect x="17" y="10" width="1" height="1" fill="#3b82f6"></rect><rect x="0" y="11" width="1" height="1" fill="#3b82f6"></rect><rect x="1" y="11" width="1" height="1" fill="#1e3a8a"></rect><rect x="4" y="11" width="1" height="1" fill="#f0b429"></rect><rect x="5" y="11" width="1" height="1" fill="#f0b429"></rect><rect x="10" y="11" width="1" height="1" fill="#f0b429"></rect><rect x="11" y="11" width="1" height="1" fill="#f0b429"></rect><rect x="12" y="11" width="1" height="1" fill="#f0b429"></rect><rect x="16" y="11" width="1" height="1" fill="#1e3a8a"></rect><rect x="17" y="11" width="1" height="1" fill="#3b82f6"></rect><rect x="0" y="12" width="1" height="1" fill="#3b82f6"></rect><rect x="1" y="12" width="1" height="1" fill="#1e3a8a"></rect><rect x="5" y="12" width="1" height="1" fill="#f0b429"></rect><rect x="6" y="12" width="1" height="1" fill="#f0b429"></rect><rect x="10" y="12" width="1" height="1" fill="#f0b429"></rect><rect x="11" y="12" width="1" height="1" fill="#f0b429"></rect><rect x="12" y="12" width="1" height="1" fill="#f0b429"></rect><rect x="16" y="12" width="1" height="1" fill="#1e3a8a"></rect><rect x="17" y="12" width="1" height="1" fill="#3b82f6"></rect><rect x="0" y="13" width="1" height="1" fill="#3b82f6"></rect><rect x="1" y="13" width="1" height="1" fill="#1e3a8a"></rect><rect x="4" y="13" width="1" height="1" fill="#f0b429"></rect><rect x="5" y="13" width="1" height="1" fill="#f0b429"></rect><rect x="16" y="13" width="1" height="1" fill="#1e3a8a"></rect><rect x="17" y="13" width="1" height="1" fill="#3b82f6"></rect><rect x="0" y="14" width="1" height="1" fill="#3b82f6"></rect><rect x="1" y="14" width="1" height="1" fill="#1e3a8a"></rect><rect x="3" y="14" width="1" height="1" fill="#f0b429"></rect><rect x="4" y="14" width="1" height="1" fill="#f0b429"></rect><rect x="16" y="14" width="1" height="1" fill="#1e3a8a"></rect><rect x="17" y="14" width="1" height="1" fill="#3b82f6"></rect><rect x="0" y="15" width="1" height="1" fill="#3b82f6"></rect><rect x="1" y="15" width="1" height="1" fill="#1e3a8a"></rect><rect x="2" y="15" width="1" height="1" fill="#1e3a8a"></rect><rect x="3" y="15" width="1" height="1" fill="#1e3a8a"></rect><rect x="4" y="15" width="1" height="1" fill="#1e3a8a"></rect><rect x="5" y="15" width="1" height="1" fill="#1e3a8a"></rect><rect x="6" y="15" width="1" height="1" fill="#1e3a8a"></rect><rect x="7" y="15" width="1" height="1" fill="#1e3a8a"></rect><rect x="8" y="15" width="1" height="1" fill="#1e3a8a"></rect><rect x="9" y="15" width="1" height="1" fill="#1e3a8a"></rect><rect x="10" y="15" width="1" height="1" fill="#1e3a8a"></rect><rect x="11" y="15" width="1" height="1" fill="#1e3a8a"></rect><rect x="12" y="15" width="1" height="1" fill="#1e3a8a"></rect><rect x="13" y="15" width="1" height="1" fill="#1e3a8a"></rect><rect x="14" y="15" width="1" height="1" fill="#1e3a8a"></rect><rect x="15" y="15" width="1" height="1" fill="#1e3a8a"></rect><rect x="16" y="15" width="1" height="1" fill="#1e3a8a"></rect><rect x="17" y="15" width="1" height="1" fill="#3b82f6"></rect><rect x="0" y="16" width="1" height="1" fill="#3b82f6"></rect><rect x="1" y="16" width="1" height="1" fill="#3b82f6"></rect><rect x="2" y="16" width="1" height="1" fill="#3b82f6"></rect><rect x="3" y="16" width="1" height="1" fill="#3b82f6"></rect><rect x="4" y="16" width="1" height="1" fill="#3b82f6"></rect><rect x="5" y="16" width="1" height="1" fill="#3b82f6"></rect><rect x="6" y="16" width="1" height="1" fill="#3b82f6"></rect><rect x="7" y="16" width="1" height="1" fill="#3b82f6"></rect><rect x="8" y="16" width="1" height="1" fill="#3b82f6"></rect><rect x="9" y="16" width="1" height="1" fill="#3b82f6"></rect><rect x="10" y="16" width="1" height="1" fill="#3b82f6"></rect><rect x="11" y="16" width="1" height="1" fill="#3b82f6"></rect><rect x="12" y="16" width="1" height="1" fill="#3b82f6"></rect><rect x="13" y="16" width="1" height="1" fill="#3b82f6"></rect><rect x="14" y="16" width="1" height="1" fill="#3b82f6"></rect><rect x="15" y="16" width="1" height="1" fill="#3b82f6"></rect><rect x="16" y="16" width="1" height="1" fill="#3b82f6"></rect><rect x="17" y="16" width="1" height="1" fill="#3b82f6"></rect><rect x="1" y="17" width="1" height="1" fill="#3b82f6"></rect><rect x="2" y="17" width="1" height="1" fill="#3b82f6"></rect><rect x="3" y="17" width="1" height="1" fill="#3b82f6"></rect><rect x="4" y="17" width="1" height="1" fill="#3b82f6"></rect><rect x="5" y="17" width="1" height="1" fill="#3b82f6"></rect><rect x="6" y="17" width="1" height="1" fill="#3b82f6"></rect><rect x="7" y="17" width="1" height="1" fill="#3b82f6"></rect><rect x="8" y="17" width="1" height="1" fill="#3b82f6"></rect><rect x="9" y="17" width="1" height="1" fill="#3b82f6"></rect><rect x="10" y="17" width="1" height="1" fill="#3b82f6"></rect><rect x="11" y="17" width="1" height="1" fill="#3b82f6"></rect><rect x="12" y="17" width="1" height="1" fill="#3b82f6"></rect><rect x="13" y="17" width="1" height="1" fill="#3b82f6"></rect><rect x="14" y="17" width="1" height="1" fill="#3b82f6"></rect><rect x="15" y="17" width="1" height="1" fill="#3b82f6"></rect><rect x="16" y="17" width="1" height="1" fill="#3b82f6"></rect><rect x="2" y="18" width="1" height="1" fill="#3b82f6"></rect><rect x="3" y="18" width="1" height="1" fill="#3b82f6"></rect><rect x="4" y="18" width="1" height="1" fill="#3b82f6"></rect><rect x="5" y="18" width="1" height="1" fill="#3b82f6"></rect><rect x="6" y="18" width="1" height="1" fill="#3b82f6"></rect><rect x="7" y="18" width="1" height="1" fill="#3b82f6"></rect><rect x="8" y="18" width="1" height="1" fill="#3b82f6"></rect><rect x="9" y="18" width="1" height="1" fill="#3b82f6"></rect><rect x="10" y="18" width="1" height="1" fill="#3b82f6"></rect><rect x="11" y="18" width="1" height="1" fill="#3b82f6"></rect><rect x="12" y="18" width="1" height="1" fill="#3b82f6"></rect><rect x="13" y="18" width="1" height="1" fill="#3b82f6"></rect><rect x="14" y="18" width="1" height="1" fill="#3b82f6"></rect><rect x="15" y="18" width="1" height="1" fill="#3b82f6"></rect>
</svg>